<svg width="316" height="92" viewBox="0 0 316 92" fill="none" xmlns="http://www.w3.org/2000/svg" role="img" aria-label="ReqTrace — Требования, Тесты, Покрытие">
<path d="M23 21H41L52 32V58C52 59.3261 51.4732 60.5979 50.5355 61.5355C49.5979 62.4732 48.3261 63 47 63H23C21.6739 63 20.4021 62.4732 19.4645 61.5355C18.5268 60.5979 18 59.3261 18 58V26C18 24.6739 18.5268 23.4021 19.4645 22.4645C20.4021 21.5268 21.6739 21 23 21Z" stroke="#4DB830" stroke-width="3" stroke-linejoin="round"/>
<path d="M41 21V32H52" stroke="#4DB830" stroke-width="3" stroke-linecap="round" stroke-linejoin="round"/>
<path d="M22.5 34.0002L24.8 36.6002L29 31.2002" stroke="#4DB830" stroke-width="2.6" stroke-linecap="round" stroke-linejoin="round"/>
<path d="M43.4 32.3999H34.6C33.7163 32.3999 33 33.1162 33 33.9999C33 34.8836 33.7163 35.5999 34.6 35.5999H43.4C44.2837 35.5999 45 34.8836 45 33.9999C45 33.1162 44.2837 32.3999 43.4 32.3999Z" fill="#4DB830"/>
<path d="M25.6 45.5C26.9807 45.5 28.1 44.3807 28.1 43C28.1 41.6193 26.9807 40.5 25.6 40.5C24.2193 40.5 23.1 41.6193 23.1 43C23.1 44.3807 24.2193 45.5 25.6 45.5Z" fill="#F59E0B"/>
<path d="M43.4 41.3999H34.6C33.7163 41.3999 33 42.1162 33 42.9999C33 43.8836 33.7163 44.5999 34.6 44.5999H43.4C44.2837 44.5999 45 43.8836 45 42.9999C45 42.1162 44.2837 41.3999 43.4 41.3999Z" fill="#4DB830"/>
<path d="M23.4 49.7998L27.8 54.1998M27.8 49.7998L23.4 54.1998" stroke="#9CA3AF" stroke-width="2.4" stroke-linecap="round"/>
<path d="M39.9 50.3999H34.6C33.7163 50.3999 33 51.1162 33 51.9999C33 52.8836 33.7163 53.5999 34.6 53.5999H39.9C40.7837 53.5999 41.5 52.8836 41.5 51.9999C41.5 51.1162 40.7837 50.3999 39.9 50.3999Z" fill="#9CA3AF"/>
<path d="M46.3 50.3999H44.9C44.4029 50.3999 44 50.8028 44 51.2999V52.6999C44 53.197 44.4029 53.5999 44.9 53.5999H46.3C46.7971 53.5999 47.2 53.197 47.2 52.6999V51.2999C47.2 50.8028 46.7971 50.3999 46.3 50.3999Z" fill="#9CA3AF"/>
<path d="M49 63.5C53.6944 63.5 57.5 59.6944 57.5 55C57.5 50.3056 53.6944 46.5 49 46.5C44.3056 46.5 40.5 50.3056 40.5 55C40.5 59.6944 44.3056 63.5 49 63.5Z" stroke="white" stroke-width="6.5"/>
<path d="M55.2 61.2002L62.5 68.5002" stroke="white" stroke-width="7" stroke-linecap="round"/>
<path d="M49 63.5C53.6944 63.5 57.5 59.6944 57.5 55C57.5 50.3056 53.6944 46.5 49 46.5C44.3056 46.5 40.5 50.3056 40.5 55C40.5 59.6944 44.3056 63.5 49 63.5Z" stroke="#4DB830" stroke-width="3"/>
<path d="M55.2 61.2002L62.5 68.5002" stroke="#4DB830" stroke-width="3.6" stroke-linecap="round"/>
<path d="M74.9077 59V25.5455H88.1065C90.6331 25.5455 92.7893 25.9974 94.5753 26.9013C96.3722 27.7943 97.7389 29.063 98.6754 30.7074C99.6229 32.3409 100.097 34.263 100.097 36.4737C100.097 38.6953 99.6174 40.6065 98.6591 42.2074C97.7008 43.7973 96.3123 45.017 94.4936 45.8665C92.6858 46.7159 90.4969 47.1406 87.9268 47.1406H79.0895V41.456H86.7834C88.1338 41.456 89.2554 41.2708 90.1484 40.9006C91.0414 40.5303 91.7057 39.9749 92.1413 39.2344C92.5878 38.4938 92.8111 37.5736 92.8111 36.4737C92.8111 35.3629 92.5878 34.4264 92.1413 33.6641C91.7057 32.9018 91.036 32.3246 90.1321 31.9325C89.2391 31.5296 88.112 31.3281 86.7507 31.3281H81.9808V59H74.9077ZM92.9744 43.7756L101.289 59H93.4808L85.3459 43.7756H92.9744ZM115.995 59.4901C113.414 59.4901 111.192 58.9673 109.33 57.9219C107.479 56.8655 106.052 55.3736 105.05 53.446C104.048 51.5076 103.547 49.2152 103.547 46.5689C103.547 43.9879 104.048 41.7228 105.05 39.7734C106.052 37.8241 107.462 36.3049 109.281 35.2159C111.111 34.1269 113.256 33.5824 115.717 33.5824C117.372 33.5824 118.913 33.8492 120.34 34.3828C121.778 34.9055 123.03 35.6951 124.097 36.7514C125.175 37.8078 126.014 39.1364 126.613 40.7372C127.212 42.3272 127.511 44.1894 127.511 46.3239V48.2351H106.324V43.9226H120.961C120.961 42.9207 120.743 42.0331 120.307 41.2599C119.872 40.4867 119.267 39.8823 118.494 39.4467C117.732 39.0002 116.844 38.777 115.831 38.777C114.775 38.777 113.839 39.022 113.022 39.5121C112.216 39.9912 111.584 40.6392 111.127 41.456C110.67 42.2618 110.435 43.1603 110.425 44.1513V48.2514C110.425 49.4929 110.653 50.5656 111.111 51.4695C111.579 52.3733 112.238 53.0703 113.087 53.5604C113.937 54.0504 114.944 54.2955 116.109 54.2955C116.882 54.2955 117.59 54.1866 118.233 53.9688C118.875 53.7509 119.425 53.4242 119.883 52.9886C120.34 52.553 120.689 52.0194 120.928 51.3878L127.364 51.8125C127.037 53.3589 126.368 54.7093 125.355 55.8636C124.353 57.0071 123.057 57.9001 121.467 58.5426C119.888 59.1742 118.064 59.4901 115.995 59.4901ZM148.633 68.4091V54.9815H148.42C148.094 55.6785 147.631 56.37 147.032 57.0561C146.444 57.7313 145.676 58.2921 144.729 58.7386C143.792 59.1851 142.648 59.4084 141.298 59.4084C139.392 59.4084 137.666 58.9183 136.12 57.9382C134.584 56.9472 133.365 55.4934 132.461 53.5767C131.568 51.6491 131.121 49.286 131.121 46.4872C131.121 43.6122 131.584 41.2218 132.51 39.3161C133.435 37.3994 134.666 35.9673 136.202 35.0199C137.748 34.0616 139.441 33.5824 141.282 33.5824C142.687 33.5824 143.857 33.822 144.794 34.3011C145.741 34.7694 146.504 35.3575 147.081 36.0653C147.669 36.7623 148.115 37.4484 148.42 38.1236H148.714V33.9091H155.575V68.4091H148.633ZM143.503 53.8707C144.625 53.8707 145.573 53.5658 146.346 52.956C147.13 52.3352 147.729 51.4695 148.143 50.3587C148.567 49.2479 148.78 47.9465 148.78 46.4545C148.78 44.9626 148.573 43.6667 148.159 42.5668C147.745 41.4669 147.146 40.6174 146.362 40.0185C145.578 39.4195 144.625 39.12 143.503 39.12C142.36 39.12 141.396 39.4304 140.612 40.0511C139.828 40.6719 139.234 41.5322 138.831 42.6321C138.429 43.732 138.227 45.0062 138.227 46.4545C138.227 47.9138 138.429 49.2043 138.831 50.326C139.245 51.4368 139.839 52.308 140.612 52.9396C141.396 53.5604 142.36 53.8707 143.503 53.8707Z" fill="#1A1A1A"/>
<path d="M157.682 31.3771V25.5455H185.158V31.3771H174.916V59H167.925V31.3771H157.682ZM186.947 59V33.9091H193.693V38.2869H193.955C194.412 36.7296 195.18 35.5535 196.258 34.7585C197.336 33.9527 198.578 33.5497 199.982 33.5497C200.331 33.5497 200.707 33.5715 201.11 33.6151C201.512 33.6586 201.866 33.7185 202.171 33.7947V39.9695C201.845 39.8714 201.393 39.7843 200.816 39.7081C200.238 39.6319 199.71 39.5938 199.231 39.5938C198.207 39.5938 197.293 39.817 196.487 40.2635C195.692 40.6991 195.06 41.3089 194.592 42.093C194.134 42.8771 193.906 43.781 193.906 44.8047V59H186.947ZM212.205 59.4737C210.604 59.4737 209.178 59.196 207.925 58.6406C206.673 58.0743 205.682 57.2412 204.952 56.1413C204.234 55.0305 203.874 53.6475 203.874 51.9922C203.874 50.5982 204.13 49.4276 204.642 48.4801C205.154 47.5327 205.851 46.7704 206.733 46.1932C207.615 45.616 208.617 45.1804 209.739 44.8864C210.871 44.5923 212.058 44.3854 213.3 44.2656C214.759 44.1132 215.935 43.9716 216.828 43.8409C217.721 43.6993 218.369 43.4924 218.772 43.2202C219.175 42.9479 219.376 42.545 219.376 42.0114V41.9134C219.376 40.8788 219.05 40.0784 218.396 39.5121C217.754 38.9458 216.839 38.6626 215.652 38.6626C214.4 38.6626 213.403 38.9403 212.663 39.4957C211.922 40.0402 211.432 40.7263 211.192 41.554L204.756 41.0312C205.083 39.5066 205.726 38.1889 206.684 37.0781C207.642 35.9564 208.878 35.0961 210.392 34.4972C211.917 33.8873 213.681 33.5824 215.685 33.5824C217.079 33.5824 218.413 33.7457 219.687 34.0724C220.972 34.3991 222.11 34.9055 223.101 35.5916C224.103 36.2777 224.892 37.1598 225.469 38.2379C226.047 39.3052 226.335 40.5848 226.335 42.0767V59H219.736V55.5206H219.54C219.137 56.3047 218.598 56.9962 217.923 57.5952C217.247 58.1832 216.436 58.6461 215.489 58.9837C214.541 59.3104 213.447 59.4737 212.205 59.4737ZM214.198 54.6712C215.222 54.6712 216.126 54.4697 216.91 54.0668C217.694 53.6529 218.309 53.0975 218.756 52.4006C219.202 51.7036 219.425 50.9141 219.425 50.032V47.3693C219.208 47.5109 218.908 47.6416 218.527 47.7614C218.157 47.8703 217.737 47.9737 217.269 48.0717C216.801 48.1589 216.333 48.2405 215.864 48.3168C215.396 48.3821 214.971 48.442 214.59 48.4964C213.773 48.6162 213.06 48.8068 212.45 49.0682C211.84 49.3295 211.367 49.6835 211.029 50.13C210.692 50.5656 210.523 51.1101 210.523 51.7635C210.523 52.7109 210.866 53.4351 211.552 53.9361C212.249 54.4261 213.131 54.6712 214.198 54.6712ZM243.071 59.4901C240.501 59.4901 238.29 58.9455 236.439 57.8565C234.598 56.7566 233.182 55.232 232.191 53.2827C231.211 51.3333 230.721 49.09 230.721 46.5526C230.721 43.9825 231.217 41.7282 232.208 39.7898C233.21 37.8404 234.631 36.3213 236.471 35.2322C238.312 34.1323 240.501 33.5824 243.038 33.5824C245.227 33.5824 247.144 33.9799 248.788 34.7749C250.432 35.5698 251.734 36.6861 252.692 38.1236C253.65 39.5611 254.179 41.2491 254.277 43.1875H247.71C247.525 41.9351 247.035 40.9278 246.24 40.1655C245.456 39.3923 244.426 39.0057 243.152 39.0057C242.074 39.0057 241.132 39.2997 240.326 39.8878C239.531 40.465 238.911 41.3089 238.464 42.4197C238.018 43.5305 237.794 44.8755 237.794 46.4545C237.794 48.0554 238.012 49.4167 238.448 50.5384C238.894 51.66 239.52 52.5149 240.326 53.103C241.132 53.6911 242.074 53.9851 243.152 53.9851C243.947 53.9851 244.661 53.8217 245.292 53.495C245.935 53.1683 246.463 52.6946 246.877 52.0739C247.301 51.4422 247.579 50.6854 247.71 49.8033H254.277C254.168 51.7199 253.645 53.4079 252.708 54.8672C251.783 56.3156 250.503 57.4482 248.87 58.2649C247.236 59.0817 245.303 59.4901 243.071 59.4901ZM270.167 59.4901C267.586 59.4901 265.364 58.9673 263.502 57.9219C261.651 56.8655 260.224 55.3736 259.222 53.446C258.22 51.5076 257.719 49.2152 257.719 46.5689C257.719 43.9879 258.22 41.7228 259.222 39.7734C260.224 37.8241 261.634 36.3049 263.453 35.2159C265.282 34.1269 267.428 33.5824 269.889 33.5824C271.544 33.5824 273.085 33.8492 274.512 34.3828C275.949 34.9055 277.202 35.6951 278.269 36.7514C279.347 37.8078 280.186 39.1364 280.785 40.7372C281.384 42.3272 281.683 44.1894 281.683 46.3239V48.2351H260.496V43.9226H275.133C275.133 42.9207 274.915 42.0331 274.479 41.2599C274.044 40.4867 273.439 39.8823 272.666 39.4467C271.904 39.0002 271.016 38.777 270.003 38.777C268.947 38.777 268.01 39.022 267.194 39.5121C266.388 39.9912 265.756 40.6392 265.299 41.456C264.841 42.2618 264.607 43.1603 264.596 44.1513V48.2514C264.596 49.4929 264.825 50.5656 265.282 51.4695C265.751 52.3733 266.41 53.0703 267.259 53.5604C268.108 54.0504 269.116 54.2955 270.281 54.2955C271.054 54.2955 271.762 54.1866 272.405 53.9688C273.047 53.7509 273.597 53.4242 274.055 52.9886C274.512 52.553 274.86 52.0194 275.1 51.3878L281.536 51.8125C281.209 53.3589 280.54 54.7093 279.527 55.8636C278.525 57.0071 277.229 57.9001 275.639 58.5426C274.06 59.1742 272.236 59.4901 270.167 59.4901Z" fill="#4DB830"/>
  <text x="75" y="80" font-family="-apple-system, BlinkMacSystemFont, 'Segoe UI', Roboto, Helvetica, Arial, sans-serif" font-size="13.5" font-weight="500" letter-spacing="0.4" fill="#6B7280" textLength="208" lengthAdjust="spacingAndGlyphs">Требования <tspan fill="#7AE05A" font-weight="700">•</tspan> Тесты <tspan fill="#7AE05A" font-weight="700">•</tspan> Покрытие</text>
</svg>
